<?xml version="1.0" encoding="UTF-8" standalone="no"?>
<!-- Created with Inkscape (http://www.inkscape.org/) -->

<svg
   width="155.20767mm"
   height="173.12904mm"
   viewBox="0 0 155.20767 173.12904"
   version="1.1"
   id="svg1"
   xmlns="http://www.w3.org/2000/svg"
   xmlns:svg="http://www.w3.org/2000/svg">
  <defs
     id="defs1" />
  <g
     id="layer1"
     transform="translate(-45.573869,-94.119901)">
    <path
       id="path2"
       style="fill:#4dd9c8;stroke:#ffffff;stroke-width:1;stroke-linecap:square;stroke-linejoin:round;stroke-opacity:1"
       d="m 83.319717,94.643166 a 37.944252,38.806618 0 0 0 -36.632388,39.671484 37.944252,38.806618 0 0 0 30.249318,37.01531 l -0.93896,95.41899 38.634333,-0.68988 -19.450494,-95.37041 A 37.944252,38.806618 0 0 0 122.5659,133.42685 l -0.0398,-1.77508 A 37.944252,38.806618 0 0 0 83.319717,94.643166 Z" />
    <path
       style="fill:#209486;fill-opacity:1;stroke:#ffffff;stroke-width:1;stroke-linecap:square;stroke-linejoin:round;stroke-dasharray:none;stroke-opacity:1"
       id="path4"
       d="M 116.02263,131.50103 A 30.355402,31.045294 0 0 1 86.426991,163.09262 30.355402,31.045294 0 0 1 55.332075,133.04509 30.355402,31.045294 0 0 1 84.494635,101.035 30.355402,31.045294 0 0 1 115.99572,130.63671" />
    <path
       style="fill:#ffffff;fill-opacity:0.803011;stroke:#ffffff;stroke-width:0.3485;stroke-linecap:square;stroke-linejoin:round;stroke-dasharray:none;stroke-opacity:0.803011"
       id="path5"
       d="m 83.722016,121.65709 a 10.578858,10.819285 0 0 1 -10.457831,10.81858 10.578858,10.819285 0 0 1 -10.697116,-10.57104 10.578858,10.819285 0 0 1 10.213072,-11.06045 10.578858,10.819285 0 0 1 10.9308,10.31796" />
    <g
       id="g11"
       transform="matrix(1.5377734,0,0,1.5377734,-13.200041,-107.44996)">
      <path
         style="fill:none;fill-opacity:1;stroke:#ffffff;stroke-width:1.32294;stroke-linecap:square;stroke-linejoin:round;stroke-dasharray:none;stroke-opacity:1"
         d="m 44.903907,212.45493 36.366354,-0.92653 17.140823,-13.66634 6.254086,14.8245 4.40103,-6.94898 4.40102,5.32755 18.53063,-0.23163"
         id="path9" />
      <path
         id="path10"
         style="fill:#209486;fill-opacity:1;stroke:#ffffff;stroke-width:1.03417;stroke-linecap:square;stroke-linejoin:round;stroke-dasharray:none;stroke-opacity:1"
         d="m 134.88747,206.61808 a 3.621429,3.8025002 0 0 0 -3.49619,3.88724 3.621429,3.8025002 0 0 0 3.66163,3.7153 3.621429,3.8025002 0 0 0 3.58028,-3.80246 l -0.004,-0.17399 a 3.621429,3.8025002 0 0 0 -3.74162,-3.62609 z m -92.6531,1.62128 a 3.621429,3.8025002 0 0 0 -3.49619,3.88724 3.621429,3.8025002 0 0 0 3.661632,3.7153 3.621429,3.8025002 0 0 0 3.580278,-3.80213 l -0.0041,-0.17398 a 3.621429,3.8025002 0 0 0 -3.74162,-3.62643 z" />
    </g>
  </g>
</svg>
